# xmcd
#
# Track frame offsets: 
#        150
#        13454
#        29860
#        44110
#        53050
#        72536
#        87801
#        101472
#        116411
#        129136
#
# Disc length: 1882 seconds
#
# Revision: 0
# Processed by: cddbd v1.5.2PL0 Copyright (c) Steve Scherf et al.
# Submitted via: ExactAudioCopyFreeDBPlugin 1.0
#
DISCID=8c07580a
DTITLE=Emily Burgess - Are We In Love?
DYEAR=2017
DGENRE=Blues
TTITLE0=Emily Burgess, Ryan Weber - Til I Get To Call You My Own
TTITLE1=I Wanna Make You Mine
TTITLE2=Emily Burgess, Ryan Weber - Are We In Love?
TTITLE3=All I wanna Do Is Love You
TTITLE4=Emily Burgess, Ryan Weber - Ain't That A Woman?
TTITLE5=Ryan Weber, Sam Weber, Emily Burgess - Only One in Your Dreams
TTITLE6=Could You Watch Me Walk?
TTITLE7=Arrested
TTITLE8=Emily Burgess, Ryan Weber - Stand Up For Your Love
TTITLE9=What Has Been Is All Within
EXTD=
EXTT0=
EXTT1=
EXTT2=
EXTT3=
EXTT4=
EXTT5=
EXTT6=
EXTT7=
EXTT8=
EXTT9=
PLAYORDER=
